<svg xmlns="http://www.w3.org/2000/svg" id="Layer_1" data-name="Layer 1" viewBox="0 0 250 100"><defs><style>.cls-1{fill:#0b2e6f;}.cls-2{fill:#00468c;}.cls-3{fill:#ff8bfd;}.cls-4{fill:#ffd300;}.cls-5{fill:#ffda09;}.cls-6{fill:gray;}</style></defs><polygon class="cls-1" points="31.408 38.854 20.649 63.063 15.287 75.126 9.858 63.063 9.199 61.597 19.304 38.854 31.408 38.854"></polygon><polygon class="cls-2" points="31.409 38.856 3.166 38.856 8.564 26.752 25.962 26.752 25.962 26.757 31.409 38.856"></polygon><polygon class="cls-3" points="33.837 48.448 33.828 48.475 33.824 48.475 33.837 48.448"></polygon><polygon class="cls-2" points="52.2 26.65 46.77 38.74 46.73 38.85 40.82 38.85 40.82 38.86 35 38.86 35.04 38.74 35.24 38.31 40.47 26.65 52.2 26.65"></polygon><polygon class="cls-4" points="31.043 47.643 43.142 47.643 41.784 50.701 41.775 50.728 41.771 50.728 30.931 75.124 29.604 75.124 24.206 63.025 24.206 63.02 29.671 50.728 29.675 50.728 29.684 50.701 31.043 47.643"></polygon><polygon class="cls-5" points="57.06 75.126 29.655 75.126 24.208 63.027 24.208 63.022 51.617 63.022 57.06 75.126"></polygon><path class="cls-6" d="M58.1239,31.9617v4.7666h6.6786v21.547h5.4728V36.7283h6.5709V31.9617Z"></path><path class="cls-6" d="M95.9186,42.0455a6.5478,6.5478,0,0,0-2.5613-2.5613,7.71,7.71,0,0,0-3.83-.9186,7.1442,7.1442,0,0,0-3.5159.8318,4.5956,4.5956,0,0,0-1.538,1.3674V31.8779H79.1771V58.2753h5.2963V47.0066a4.03,4.03,0,0,1,.4428-1.9419A3.1843,3.1843,0,0,1,86.17,43.793a3.9515,3.9515,0,0,1,3.6924,0,3.2383,3.2383,0,0,1,1.2358,1.2717,4.0294,4.0294,0,0,1,.44,1.9419V58.2753h5.2993V45.8785A7.7141,7.7141,0,0,0,95.9186,42.0455Z"></path><path class="cls-6" d="M118.1718,44.3406a8.9477,8.9477,0,0,0-1.8552-3.0192,8.3751,8.3751,0,0,0-2.9832-2.0317,10.6677,10.6677,0,0,0-4.0635-.7241,9.4526,9.4526,0,0,0-4.9431,1.3076,9.64,9.64,0,0,0-3.48,3.5667,10.2354,10.2354,0,0,0-1.29,5.1586,10.5608,10.5608,0,0,0,1.2358,5.0838,9.3978,9.3978,0,0,0,3.4979,3.6565A10.1452,10.1452,0,0,0,109.623,58.7a10.9046,10.9046,0,0,0,3.6386-.5835A8.7451,8.7451,0,0,0,116.14,56.474a6.3755,6.3755,0,0,0,1.7833-2.4716l-4.2369-2.0137a4.0694,4.0694,0,0,1-1.5739,1.553,5.4448,5.4448,0,0,1-5.0659-.1227,4.15,4.15,0,0,1-1.6248-1.924,5.1162,5.1162,0,0,1-.368-1.38h13.5069a3.9226,3.9226,0,0,0,.1945-.9365c.0359-.3651.0509-.7361.0509-1.11A10.6141,10.6141,0,0,0,118.1718,44.3406Zm-12.98,1.891a5.4951,5.4951,0,0,1,.23-.7779,4.0316,4.0316,0,0,1,1.4812-1.9779,4.1289,4.1289,0,0,1,2.3668-.67,4.0019,4.0019,0,0,1,2.3848.6883,3.62,3.62,0,0,1,1.3615,1.87,4.0938,4.0938,0,0,1,.18.8677Z"></path><path class="cls-1" d="M118.3394,31.9617v4.7666h6.6786v21.547h5.4728V36.7283h6.5709V31.9617Z"></path><path class="cls-1" d="M152.9385,41.9049a6.9794,6.9794,0,0,0-2.9145-2.4566,10.0208,10.0208,0,0,0-4.3088-.8827,10.843,10.843,0,0,0-3.7792.6373,8.5436,8.5436,0,0,0-2.9682,1.8013,6.8841,6.8841,0,0,0-1.8014,2.7888l4.24,2.0137a4.4784,4.4784,0,0,1,1.571-2.05,4.1432,4.1432,0,0,1,2.49-.775,3.4765,3.4765,0,0,1,2.3489.7421,2.32,2.32,0,0,1,.8647,1.8342v.5176l-5.3321.8618a11.5674,11.5674,0,0,0-3.8331,1.2,5.8334,5.8334,0,0,0-2.277,2.1,5.5687,5.5687,0,0,0-.7421,2.8816,5.3639,5.3639,0,0,0,.8109,2.9832,5.1912,5.1912,0,0,0,2.3309,1.924,8.8482,8.8482,0,0,0,3.6027.6733,9.2987,9.2987,0,0,0,2.8276-.407,6.962,6.962,0,0,0,2.2951-1.2358,7.1056,7.1056,0,0,0,.67-.6134v1.8312H153.98V45.5584A6.4587,6.4587,0,0,0,152.9385,41.9049Zm-4.258,8.6715a4.2856,4.2856,0,0,1-.5475,2.1364,4.0035,4.0035,0,0,1-1.5351,1.535,4.54,4.54,0,0,1-2.295.5656,2.7192,2.7192,0,0,1-1.6607-.4938,1.61,1.61,0,0,1-.67-1.3764,1.8152,1.8152,0,0,1,.5984-1.4662,3.6854,3.6854,0,0,1,1.7325-.7241l4.3776-.781Z"></path><path class="cls-1" d="M176.0923,38.99h-6.146l-3.7433,5.5117L162.4567,38.99h-6.146l6.7834,9.6081-6.7475,9.6768h6.146L166.2,52.6978l3.71,5.5775h6.11l-6.7116-9.6768Z"></path><path class="cls-5" d="M187.0528,53.5057V31.9617H181.577V58.2753h16.6009v-4.77Z"></path><path class="cls-5" d="M200.5088,31.9617V37.258h5.2993V31.9617Zm0,7.0287V58.2753h5.2993V38.99Z"></path><path class="cls-5" d="M226.4365,42.0455a6.5474,6.5474,0,0,0-2.5614-2.5613,7.7135,7.7135,0,0,0-3.833-.9186,7.1408,7.1408,0,0,0-3.5129.8318,4.6424,4.6424,0,0,0-1.8911,1.942V38.99H209.692V58.2753h5.2992V47.0066a3.9958,3.9958,0,0,1,.4428-1.9419,3.1652,3.1652,0,0,1,1.2538-1.2717,3.9454,3.9454,0,0,1,3.6894,0,3.2181,3.2181,0,0,1,1.2358,1.2717,3.9958,3.9958,0,0,1,.4428,1.9419V58.2753h5.2993V45.8785A7.746,7.746,0,0,0,226.4365,42.0455Z"></path><path class="cls-5" d="M249.2193,38.99h-6.5351l-6.535,6.942V31.8779H230.85V58.2753h5.2992V52.3717l2.1275-2.322,4.9013,8.2256h6.0054l-6.96-11.514Z"></path><path d="M73.2748,68.2465l-.01-5.5811,3.457-.01.01.4082-2.9864.01.01,2.0948,2.5957-.01.01.4072-2.6153.01.01,2.2627,2.9858-.01.01.4082a.01.01,0,0,1-.01.01Z"></path><path d="M76.351,65.5659H73.7454v2.2728h2.9959v.3979H73.2747V62.6655h3.4476v.3979H73.7454V65.168H76.351Z"></path><polygon points="81.676 68.246 80.489 66.49 79.327 68.243 78.779 68.246 80.232 66.122 78.829 64.102 79.376 64.086 80.502 65.771 81.602 64.09 82.154 64.086 80.758 66.134 82.224 68.231 82.224 68.242 82.215 68.246 81.676 68.246"></polygon><path d="M80.4934,65.7764l1.1173-1.68h.5433L80.75,66.1283l1.4655,2.1083h-.54l-1.1784-1.7524-1.1785,1.7524h-.5395l1.4616-2.1083-1.4043-2.0319h.5395Z"></path><path d="M84.5668,69.8383l-.01-5.7422.4345-.01.0327.5957a1.4253,1.4253,0,0,1,1.2872-.6718,1.3908,1.3908,0,0,1,1.1728.5664,2.5637,2.5637,0,0,1,.4248,1.5674,2.59,2.59,0,0,1-.43,1.6064,1.3787,1.3787,0,0,1-1.1557.5723,1.55,1.55,0,0,1-1.3091-.6006l.0176,2.1064a.01.01,0,0,1-.01.01Zm1.6416-5.41a1.2593,1.2593,0,0,0-.7177.2012,1.2735,1.2735,0,0,0-.46.585l.0005,1.9814a1.2227,1.2227,0,0,0,.4663.5352,1.3608,1.3608,0,0,0,.7182.1855,1.0342,1.0342,0,0,0,.8926-.457,2.3169,2.3169,0,0,0,.3218-1.3311,2.1264,2.1264,0,0,0-.3237-1.2451A1.0429,1.0429,0,0,0,86.2084,64.4281Z"></path><path d="M87.9,66.2086a2.4945,2.4945,0,0,1-.4285,1.5364,1.3652,1.3652,0,0,1-1.1479.5682,1.5328,1.5328,0,0,1-1.301-.5971v2.1122h-.4552V64.0964h.4246l.023.5856a1.4692,1.4692,0,0,1,1.2972-.662,1.3767,1.3767,0,0,1,1.165.5625,2.5482,2.5482,0,0,1,.4228,1.561Zm-.4592-.08a2.13,2.13,0,0,0-.3251-1.2511,1.0486,1.0486,0,0,0-.9069-.4593,1.2085,1.2085,0,0,0-1.1862.7921v1.9857a1.217,1.217,0,0,0,.4707.5435,1.3578,1.3578,0,0,0,.7232.1874,1.039,1.039,0,0,0,.901-.4611A2.3175,2.3175,0,0,0,87.44,66.1283Z"></path><path d="M92.0839,68.3227a1.8228,1.8228,0,0,1-.96-.2608,1.7956,1.7956,0,0,1-.6675-.7295,2.278,2.278,0,0,1-.2383-1.0468v-.1651a2.4544,2.4544,0,0,1,.2324-1.0791,1.8663,1.8663,0,0,1,.6485-.7568A1.61,1.61,0,0,1,92,64.01a1.5111,1.5111,0,0,1,1.2032.5175,2.1075,2.1075,0,0,1,.4438,1.4131v.2559l-2.9634.01a1.8518,1.8518,0,0,0,.4116,1.2441,1.28,1.28,0,0,0,1.0079.4658,1.4844,1.4844,0,0,0,.644-.1328,1.4409,1.4409,0,0,0,.5078-.4248l.3.2158A1.66,1.66,0,0,1,92.0839,68.3227ZM92,64.42a1.14,1.14,0,0,0-.8633.376,1.7462,1.7462,0,0,0-.4282,1.0117l2.4737-.0107a1.6084,1.6084,0,0,0-.3482-1.0049A1.0479,1.0479,0,0,0,92,64.42Z"></path><path d="M92.0839,68.3132a1.7967,1.7967,0,0,1-.9546-.26,1.7719,1.7719,0,0,1-.6639-.7252,2.2586,2.2586,0,0,1-.2373-1.0425v-.1645a2.4376,2.4376,0,0,1,.2315-1.0753,1.8446,1.8446,0,0,1,.6447-.7519A1.5915,1.5915,0,0,1,92,64.02a1.4945,1.4945,0,0,1,1.1957.5147,2.0868,2.0868,0,0,1,.442,1.4062v.2562H90.6835v.0881a1.7337,1.7337,0,0,0,.4036,1.1727,1.2842,1.2842,0,0,0,1.016.4687,1.4916,1.4916,0,0,0,.6485-.1338,1.44,1.44,0,0,0,.5108-.4286l.2869.2181A1.67,1.67,0,0,1,92.0839,68.3132ZM92,64.41a1.1446,1.1446,0,0,0-.87.3787,1.75,1.75,0,0,0-.43,1.0178H93.182v-.05a1.52,1.52,0,0,0-.3405-.9719A1.0557,1.0557,0,0,0,92,64.41Z"></path><path d="M96.0961,68.2465l-.01-4.15.4575-.01.0171.668a1.1881,1.1881,0,0,1,1.1577-.7441.758.758,0,0,1,.3061.0507l-.0058.4258c-.1079-.0078-.2105-.0166-.32-.0166a1.1108,1.1108,0,0,0-.7187.2373,1.307,1.307,0,0,0-.4194.6895v2.84a.01.01,0,0,1-.01.01Z"></path><path d="M98.0093,64.4869a1.6978,1.6978,0,0,0-.31-.027,1.1183,1.1183,0,0,0-.7252.2394,1.311,1.311,0,0,0-.4228.6944v2.8429h-.4552v-4.14h.4476l.0076.6582a1.2179,1.2179,0,0,1,1.1671-.7346.7554.7554,0,0,1,.3022.05Z"></path><path d="M101.6425,68.3227a.8259.8259,0,0,1-.6924-.2774,1.3013,1.3013,0,0,1-.2163-.8115V64.4711l-.7519.01-.01-.3848.7715-.01-.01-1.05.4688-.01.01,1.0693.8472-.01.01.3848-.8667.01.01,2.7529a.8586.8586,0,0,0,.1226.5068.476.476,0,0,0,.4072.1651,2.84,2.84,0,0,0,.37-.0381l.03.38A1.3041,1.3041,0,0,1,101.6425,68.3227Z"></path><path d="M101.2026,63.0367v1.06h.8571v.3751h-.8571v2.7618a.8645.8645,0,0,0,.1244.5133.4817.4817,0,0,0,.4151.1685,2.8612,2.8612,0,0,0,.3712-.0381l.0191.3716a1.4979,1.4979,0,0,1-.49.0646.8161.8161,0,0,1-.6848-.2737,1.2875,1.2875,0,0,1-.2143-.8055V64.4715h-.7614v-.3751h.7614v-1.06Z"></path><path d="M111.7411,68.2465l-.5874-1.5713-2.5195.0059-.5649,1.56-.503.0059,2.0992-5.585.457-.0058,2.1177,5.5771-.001.01-.0083.0039Zm-2.9526-1.9688,2.2256-.0136-1.1172-2.9961Z"></path><path d="M111.1631,66.6716H108.634l-.5739,1.565h-.4936l2.1083-5.5711h.4476l2.1083,5.5711h-.49Zm-2.3837-.3979h2.2345L109.8967,63.24Z"></path><path d="M116.04,68.3227a1.6151,1.6151,0,0,1-1.2989-.5694,2.3086,2.3086,0,0,1-.4785-1.5293v-.1377a2.6069,2.6069,0,0,1,.2149-1.0869,1.67,1.67,0,0,1,.6181-.7314,1.7152,1.7152,0,0,1,.941-.2578,1.6179,1.6179,0,0,1,1.13.4072,1.4981,1.4981,0,0,1,.4751,1.0762l-.45.01a1.1828,1.1828,0,0,0-.3569-.7881,1.24,1.24,0,0,0-1.7529.1485,2.0256,2.0256,0,0,0-.3409,1.249v.1338a1.9808,1.9808,0,0,0,.3409,1.2305,1.1448,1.1448,0,0,0,.958.4394,1.204,1.204,0,0,0,.7954-.2676.9454.9454,0,0,0,.3467-.6914l.45-.0088a1.23,1.23,0,0,1-.229.7061,1.4915,1.4915,0,0,1-.5835.4912A1.77,1.77,0,0,1,116.04,68.3227Z"></path><path d="M116.04,67.9266a1.21,1.21,0,0,0,.8016-.27.9487.9487,0,0,0,.35-.6981h.44a1.2963,1.2963,0,0,1-.2372.6905,1.4852,1.4852,0,0,1-.58.4879,1.7486,1.7486,0,0,1-.7747.1761,1.5992,1.5992,0,0,1-1.2914-.5664,2.289,2.289,0,0,1-.4764-1.5229v-.1376a2.5869,2.5869,0,0,1,.2143-1.0829,1.6486,1.6486,0,0,1,.6142-.7269,1.6931,1.6931,0,0,1,.9355-.2565,1.5977,1.5977,0,0,1,1.123.4055,1.48,1.48,0,0,1,.4725,1.0677h-.44a1.1077,1.1077,0,0,0-1.1554-1.0829,1.1419,1.1419,0,0,0-.9624.4477,2.0259,2.0259,0,0,0-.3424,1.2551v.1338a1.98,1.98,0,0,0,.3424,1.2359A1.15,1.15,0,0,0,116.04,67.9266Z"></path><path d="M121.644,68.3227a1.6164,1.6164,0,0,1-1.2993-.5694,2.308,2.308,0,0,1-.4781-1.5293v-.1377a2.6069,2.6069,0,0,1,.2149-1.0869,1.6653,1.6653,0,0,1,.6181-.7314,1.7146,1.7146,0,0,1,.9405-.2578,1.6161,1.6161,0,0,1,1.13.4072,1.4985,1.4985,0,0,1,.4756,1.0762l-.45.01a1.1828,1.1828,0,0,0-.3569-.7881,1.24,1.24,0,0,0-1.7534.1485,2.0289,2.0289,0,0,0-.34,1.249v.1338a1.984,1.984,0,0,0,.34,1.2305,1.147,1.147,0,0,0,.9585.4394,1.204,1.204,0,0,0,.7954-.2676.9454.9454,0,0,0,.3467-.6914l.45-.0088a1.23,1.23,0,0,1-.229.7061,1.5058,1.5058,0,0,1-.5835.4912A1.77,1.77,0,0,1,121.644,68.3227Z"></path><path d="M121.6441,67.9266a1.21,1.21,0,0,0,.8016-.27.9487.9487,0,0,0,.35-.6981h.44a1.2972,1.2972,0,0,1-.2372.6905,1.4852,1.4852,0,0,1-.58.4879,1.7486,1.7486,0,0,1-.7747.1761,1.5992,1.5992,0,0,1-1.2914-.5664,2.289,2.289,0,0,1-.4764-1.5229v-.1376a2.5869,2.5869,0,0,1,.2143-1.0829,1.6486,1.6486,0,0,1,.6142-.7269,1.6931,1.6931,0,0,1,.9355-.2565,1.5972,1.5972,0,0,1,1.1229.4055,1.48,1.48,0,0,1,.4726,1.0677h-.44A1.1077,1.1077,0,0,0,121.64,64.41a1.1419,1.1419,0,0,0-.9624.4477,2.0259,2.0259,0,0,0-.3424,1.2551v.1338a1.98,1.98,0,0,0,.3424,1.2359A1.15,1.15,0,0,0,121.6441,67.9266Z"></path><path d="M127.3173,68.3227a1.7184,1.7184,0,0,1-1.3447-.5821,2.2494,2.2494,0,0,1-.5171-1.5439,2.5758,2.5758,0,0,1,.2324-1.17A1.7434,1.7434,0,0,1,127.31,64.01a1.7222,1.7222,0,0,1,1.3467.583,2.2511,2.2511,0,0,1,.5146,1.5429,2.616,2.616,0,0,1-.2324,1.1807,1.7521,1.7521,0,0,1-.6562.7451A1.81,1.81,0,0,1,127.3173,68.3227ZM127.31,64.42a1.2193,1.2193,0,0,0-.9912.4766,1.94,1.94,0,0,0-.3843,1.251,1.9676,1.9676,0,0,0,.3823,1.2968,1.2928,1.2928,0,0,0,1.9971,0,1.9413,1.9413,0,0,0,.3828-1.2509,2.2621,2.2621,0,0,0-.1748-.9532,1.4254,1.4254,0,0,0-.4912-.6064A1.2554,1.2554,0,0,0,127.31,64.42Z"></path><path d="M125.465,66.1052a2.4349,2.4349,0,0,1,.2315-1.075,1.7388,1.7388,0,0,1,1.6128-1.01,1.7025,1.7025,0,0,1,1.3392.58,2.2333,2.2333,0,0,1,.5126,1.5361v.0958a2.4562,2.4562,0,0,1-.2315,1.0808,1.7278,1.7278,0,0,1-.6522.74,1.7886,1.7886,0,0,1-.96.26,1.7044,1.7044,0,0,1-1.3372-.58,2.2279,2.2279,0,0,1-.5147-1.5363Zm.4593.1265a1.8783,1.8783,0,0,0,.3845,1.2186,1.3011,1.3011,0,0,0,2.0125,0,1.94,1.94,0,0,0,.3847-1.2569v-.0882a2.108,2.108,0,0,0-.1761-.8684,1.4136,1.4136,0,0,0-.4937-.61,1.2593,1.2593,0,0,0-.7269-.2163,1.2237,1.2237,0,0,0-.9987.48,1.9439,1.9439,0,0,0-.3863,1.2569Z"></path><path d="M133.0165,68.3227a1.2935,1.2935,0,0,1-1.0136-.3877,1.7,1.7,0,0,1-.3545-1.1446V64.0961l.4648-.01.01,2.6465c0,.7783.3193,1.1729.9472,1.1729a1.1666,1.1666,0,0,0,1.2491-.8164V64.0961l.4687-.01.01,4.15-.4531.01-.0176-.5342A1.4408,1.4408,0,0,1,133.0165,68.3227Z"></path><path d="M134.3365,67.7124a1.4876,1.4876,0,0,1-1.32.6008,1.281,1.281,0,0,1-1.0065-.3847,1.6845,1.6845,0,0,1-.352-1.1383V64.0964h.4554v2.6363q0,1.1826.9566,1.1824a1.1724,1.1724,0,0,0,1.2587-.8226V64.0964h.4593v4.14h-.4438Z"></path><path d="M140.2118,68.2465l-.01-2.73a1.25,1.25,0,0,0-.2334-.8193.9145.9145,0,0,0-.7324-.2686,1.1573,1.1573,0,0,0-.7461.2637,1.5582,1.5582,0,0,0-.4795.7129v2.832l-.4658.01-.01-4.15.4463-.01.0254.7178a1.46,1.46,0,0,1,.5664-.5918,1.5373,1.5373,0,0,1,.7744-.2021,1.26,1.26,0,0,1,.999.3779,1.7143,1.7143,0,0,1,.3311,1.1318v2.7168a.0092.0092,0,0,1-.01.01Z"></path><path d="M137.9814,64.0964l.0155.7081a1.6429,1.6429,0,0,1,.5816-.5837,1.5113,1.5113,0,0,1,.7689-.2008,1.242,1.242,0,0,1,.991.3751,1.6914,1.6914,0,0,1,.3292,1.1248v2.7167h-.4554V65.516a1.2642,1.2642,0,0,0-.2354-.8264.9223.9223,0,0,0-.74-.2717,1.1588,1.1588,0,0,0-.7519.2659,1.5589,1.5589,0,0,0-.4839.7175v2.8353h-.4554v-4.14Z"></path><path d="M144.5693,68.3227a.8274.8274,0,0,1-.6934-.2774,1.3034,1.3034,0,0,1-.2158-.8115V64.4711l-.752.01-.01-.3848.7715-.01-.01-1.05.4687-.01.01,1.0693.8477-.01.01.3848-.8672.01.01,2.7529a.8568.8568,0,0,0,.1221.5068.4752.4752,0,0,0,.4072.1651,2.8122,2.8122,0,0,0,.3691-.0381l.0313.38A1.3067,1.3067,0,0,1,144.5693,68.3227Z"></path><path d="M144.1287,63.0367v1.06h.8571v.3751h-.8571v2.7618a.8645.8645,0,0,0,.1244.5133.4818.4818,0,0,0,.4152.1685,2.8634,2.8634,0,0,0,.3711-.0381l.0191.3716a1.498,1.498,0,0,1-.49.0646.8164.8164,0,0,1-.685-.2737,1.2882,1.2882,0,0,1-.2141-.8055V64.4715h-.7616v-.3751h.7616v-1.06Z"></path><path d="M147.5556,68.2465l-.01-4.15.4688-.01.01,4.15a.0092.0092,0,0,1-.01.01Zm.2334-5.0313a.3048.3048,0,0,1-.3233-.3144.3162.3162,0,0,1,.087-.2256.3068.3068,0,0,1,.2363-.0918.3143.3143,0,0,1,.2383.0918.31.31,0,0,1,.0888.2256.304.304,0,0,1-.0888.2236A.3186.3186,0,0,1,147.789,63.2152Z"></path><path d="M147.4751,62.901a.3071.3071,0,0,1,.0843-.2188.3.3,0,0,1,.23-.0894.3006.3006,0,0,1,.3176.3082.2979.2979,0,0,1-.0861.2167.3111.3111,0,0,1-.2315.0874.3045.3045,0,0,1-.23-.0874A.3009.3009,0,0,1,147.4751,62.901Zm.54,5.3356h-.4592v-4.14h.4592Z"></path><path d="M153.4921,68.2465l-.01-2.73a1.25,1.25,0,0,0-.2334-.8193.9146.9146,0,0,0-.7325-.2686,1.1538,1.1538,0,0,0-.7461.2637,1.5634,1.5634,0,0,0-.48.7129v2.832l-.4649.01-.01-4.15.4462-.01.0254.7178a1.4609,1.4609,0,0,1,.5664-.5918,1.5377,1.5377,0,0,1,.7745-.2021,1.2562,1.2562,0,0,1,.998.3779,1.7084,1.7084,0,0,1,.3311,1.1318v2.7168a.0092.0092,0,0,1-.01.01Z"></path><path d="M151.2615,64.0964l.0154.7081a1.6437,1.6437,0,0,1,.5816-.5837,1.5119,1.5119,0,0,1,.769-.2008,1.242,1.242,0,0,1,.991.3751,1.6914,1.6914,0,0,1,.3291,1.1248v2.7167h-.4553V65.516a1.2648,1.2648,0,0,0-.2354-.8264.9223.9223,0,0,0-.74-.2717,1.1586,1.1586,0,0,0-.7519.2659,1.56,1.56,0,0,0-.484.7175v2.8353h-.4553v-4.14Z"></path><path d="M158.1894,69.8959a1.8719,1.8719,0,0,1-.8291-.1943,1.6188,1.6188,0,0,1-.6211-.5176l.2578-.2881a1.4949,1.4949,0,0,0,1.1621.5938,1.1761,1.1761,0,0,0,.8887-.336,1.3469,1.3469,0,0,0,.3291-.9326v-.5205a1.4315,1.4315,0,0,1-1.2715.6221,1.3984,1.3984,0,0,1-1.1631-.5772,2.5209,2.5209,0,0,1-.4385-1.5556,2.5828,2.5828,0,0,1,.4327-1.6075,1.4025,1.4025,0,0,1,1.1767-.5722,1.4545,1.4545,0,0,1,1.294.6777l.0048-.5918.4385-.01.01,4.0664a1.7673,1.7673,0,0,1-.4512,1.2735A1.6176,1.6176,0,0,1,158.1894,69.8959Zm.0078-5.4678a1.0365,1.0365,0,0,0-.8916.4493,2.308,2.308,0,0,0-.3193,1.331,2.156,2.156,0,0,0,.3154,1.2432,1.0236,1.0236,0,0,0,.8877.4541,1.2188,1.2188,0,0,0,1.1885-.752l-.001-1.9209a1.2939,1.2939,0,0,0-.459-.5986A1.2431,1.2431,0,0,0,158.1972,64.4281Z"></path><path d="M156.5138,66.1283a2.4916,2.4916,0,0,1,.43-1.54,1.3886,1.3886,0,0,1,1.1689-.5682,1.44,1.44,0,0,1,1.2855.6735l.0231-.5971h.4283v4.0559a1.7535,1.7535,0,0,1-.4475,1.2666,1.6019,1.6019,0,0,1-1.213.4669,1.8431,1.8431,0,0,1-.8246-.1934,1.6,1.6,0,0,1-.6178-.5147l.2564-.2753a1.45,1.45,0,0,0,1.1556.5968,1.1749,1.1749,0,0,0,.8952-.3386,1.3491,1.3491,0,0,0,.3328-.9393v-.52a1.48,1.48,0,0,1-1.2818.6123,1.38,1.38,0,0,1-1.1554-.574,2.5012,2.5012,0,0,1-.4361-1.55Zm.4629.08a2.1572,2.1572,0,0,0,.3176,1.2493,1.0265,1.0265,0,0,0,.8952.4572,1.2236,1.2236,0,0,0,1.1976-.7575V65.2328a1.3054,1.3054,0,0,0-.463-.6062,1.2472,1.2472,0,0,0-.727-.2087,1.04,1.04,0,0,0-.8991.4535A2.3071,2.3071,0,0,0,156.9767,66.2086Z"></path><path d="M167.63,68.3227a1.8761,1.8761,0,0,1-1.2695-.4092,1.4511,1.4511,0,0,1-.23-1.8692,3.6244,3.6244,0,0,1,.8428-.8154c-.17-.29-.333-.5322-.4336-.7441a1.4441,1.4441,0,0,1-.1524-.6289,1.251,1.251,0,0,1,.3516-.9336,1.2914,1.2914,0,0,1,.94-.3428,1.2256,1.2256,0,0,1,.8672.31,1.0337,1.0337,0,0,1,.332.7891,1.4832,1.4832,0,0,1-.6377,1.0908l-.6132.4746,1.5322,1.7686a2.5042,2.5042,0,0,0,.331-1.2676l.4346-.01a2.5631,2.5631,0,0,1-.4824,1.6192l.7617.875-.56.0166-.4892-.5615a2.02,2.02,0,0,1-.6865.4687A2.126,2.126,0,0,1,167.63,68.3227Zm-.5185-2.6836a1.6457,1.6457,0,0,0-.7461,1.1777,1.0175,1.0175,0,0,0,.3418.7979,1.3461,1.3461,0,0,0,.9228.3017,1.6309,1.6309,0,0,0,.6709-.1455,1.9048,1.9048,0,0,0,.585-.418l-1.5586-1.792-.04-.0566Zm.5644-2.65a.7618.7618,0,0,0-.5889.2383.8722.8722,0,0,0-.2207.6132,1.87,1.87,0,0,0,.5147,1.0957l.4873-.3837a1.84,1.84,0,0,0,.4-.3848.8028.8028,0,0,0,.1553-.4883.6642.6642,0,0,0-.2041-.4922A.7543.7543,0,0,0,167.6757,62.9887Z"></path><path d="M167.0327,65.1985a3.6144,3.6144,0,0,1-.484-.7173,1.4384,1.4384,0,0,1-.1512-.6257,1.2355,1.2355,0,0,1,.3483-.9259,1.277,1.277,0,0,1,.9335-.3407,1.209,1.209,0,0,1,.8609.3081,1.0248,1.0248,0,0,1,.3291.7824,1.4645,1.4645,0,0,1-.6352,1.0829l-.6122.4745,1.5306,1.783a2.3726,2.3726,0,0,0,.348-1.2741h.4249a2.6,2.6,0,0,1-.49,1.6032l.7614.8877h-.5511l-.4821-.5588a2.2154,2.2154,0,0,1-.6982.4669,2.1161,2.1161,0,0,1-.8361.1685,1.8534,1.8534,0,0,1-1.2627-.4076,1.4391,1.4391,0,0,1-.2275-1.8558,3.604,3.604,0,0,1,.84-.813Zm.5968,2.7281a1.6293,1.6293,0,0,0,.6753-.1472,1.8747,1.8747,0,0,0,.5873-.4191l-1.5571-1.806-.0535-.0574-.1761.1341a1.6471,1.6471,0,0,0-.75,1.186,1.0218,1.0218,0,0,0,.3446.8054A1.3527,1.3527,0,0,0,167.63,67.9266Zm-.7729-4.0863a1.8759,1.8759,0,0,0,.5165,1.1017l.5012-.3824a1.8182,1.8182,0,0,0,.4019-.3865.804.804,0,0,0,.1569-.4937.6685.6685,0,0,0-.2066-.4992.757.757,0,0,0-.5511-.201.7718.7718,0,0,0-.5968.2412A.879.879,0,0,0,166.8566,63.84Z"></path><path d="M177.3,68.2465l-.01-5.1826-1.8965.01-.01-.4082,4.2959-.01.01.4082-1.919.01.01,5.1631a.0092.0092,0,0,1-.01.01Z"></path><path d="M179.6794,63.0634H177.77v5.1732h-.4708V63.0634h-1.9054v-.3979h4.2855Z"></path><path d="M182.7275,68.3227a1.4023,1.4023,0,0,1-.9737-.335,1.0991,1.0991,0,0,1-.372-.85,1.1207,1.1207,0,0,1,.5078-.9639,2.43,2.43,0,0,1,1.4072-.3545h.8311l-.01-.46a.9061.9061,0,0,0-.27-.6924,1.1324,1.1324,0,0,0-.791-.251,1.249,1.249,0,0,0-.7862.2422.7251.7251,0,0,0-.31.582l-.4688.0059a1.0467,1.0467,0,0,1,.4532-.8731,1.7863,1.7863,0,0,1,1.1347-.3632,1.63,1.63,0,0,1,1.1.3486,1.2592,1.2592,0,0,1,.4141.9736v1.959a2.4418,2.4418,0,0,0,.125.8955l-.498.06a1.8842,1.8842,0,0,1-.0977-.5869,1.4208,1.4208,0,0,1-.6006.4922A1.9068,1.9068,0,0,1,182.7275,68.3227Zm.581-2.1309a2.0616,2.0616,0,0,0-1.0664.249.7464.7464,0,0,0-.3818.6592.733.733,0,0,0,.2558.57.9627.9627,0,0,0,.6651.2276,1.5379,1.5379,0,0,0,.8154-.2207,1.2951,1.2951,0,0,0,.5225-.5889l-.001-.9063Z"></path><path d="M184.22,68.2366a2.1652,2.1652,0,0,1-.0879-.5777,1.6011,1.6011,0,0,1-.6141.484,1.885,1.885,0,0,1-.79.17,1.3871,1.3871,0,0,1-.966-.333,1.0837,1.0837,0,0,1-.3693-.8417,1.1087,1.1087,0,0,1,.5031-.9567,2.4172,2.4172,0,0,1,1.4023-.3519h.83v-.4706a.9075.9075,0,0,0-.2735-.6984,1.1316,1.1316,0,0,0-.7979-.2545,1.2485,1.2485,0,0,0-.792.2449.7284.7284,0,0,0-.3139.5894l-.459-.0039a1.0644,1.0644,0,0,1,.459-.8551,1.7678,1.7678,0,0,1,1.1288-.3617,1.6133,1.6133,0,0,1,1.0925.3462,1.2434,1.2434,0,0,1,.4113.9661v1.9592a2.4268,2.4268,0,0,0,.1263.8991v.046Zm-1.4387-.3291a1.5375,1.5375,0,0,0,.8207-.2218,1.3066,1.3066,0,0,0,.5262-.5932v-.9107h-.8189a2.0509,2.0509,0,0,0-1.0713.2507.752.752,0,0,0-.3866.6677.74.74,0,0,0,.2583.5776A.9723.9723,0,0,0,182.7808,67.9075Z"></path><polygon points="189.854 68.246 188.668 66.49 187.506 68.243 186.958 68.246 188.411 66.122 187.007 64.102 187.555 64.086 188.681 65.771 189.78 64.09 190.332 64.086 188.935 66.134 190.401 68.231 190.402 68.242 190.393 68.246 189.854 68.246"></polygon><path d="M188.6717,65.7764l1.1172-1.68h.5435l-1.4043,2.0319,1.4655,2.1083h-.54l-1.1784-1.7524-1.1786,1.7524h-.5394l1.4616-2.1083-1.4044-2.0319h.54Z"></path><path d="M198.0429,68.3227a2.7377,2.7377,0,0,1-1.085-.211,1.67,1.67,0,0,1-.75-.5927,1.5329,1.5329,0,0,1-.2558-.8741l.48-.01a1.15,1.15,0,0,0,.4454.9316,1.8641,1.8641,0,0,0,1.165.3389,1.7322,1.7322,0,0,0,1.0391-.2852.9481.9481,0,0,0,.0673-1.4785,3.4431,3.4431,0,0,0-1.1855-.5107,4.17,4.17,0,0,1-1.2656-.5323,1.2948,1.2948,0,0,1-.04-2.1181,2.1778,2.1778,0,0,1,1.3506-.4014,2.259,2.259,0,0,1,.9971.2148,1.6339,1.6339,0,0,1,.6836.6006,1.5759,1.5759,0,0,1,.2422.8584l-.4844.01a1.21,1.21,0,0,0-.3975-.9209,1.5117,1.5117,0,0,0-1.041-.3457,1.6472,1.6472,0,0,0-1.0117.2842.8844.8844,0,0,0-.375.7373.8356.8356,0,0,0,.3369.6855,3.1584,3.1584,0,0,0,1.0869.4717,5.1771,5.1771,0,0,1,1.1387.4258,1.6347,1.6347,0,0,1,.585.53,1.329,1.329,0,0,1,.1962.7275,1.2734,1.2734,0,0,1-.5292,1.0644A2.2638,2.2638,0,0,1,198.0429,68.3227Z"></path><path d="M199.4818,66.8668a.9011.9011,0,0,0-.3254-.7327,3.4336,3.4336,0,0,0-1.19-.5128,4.1755,4.1755,0,0,1-1.2627-.53,1.2855,1.2855,0,0,1-.04-2.1025,2.16,2.16,0,0,1,1.345-.4,2.2324,2.2324,0,0,1,.9929.2144,1.6279,1.6279,0,0,1,.6792.5968,1.5689,1.5689,0,0,1,.2409.8533h-.4745a1.17,1.17,0,0,0-.39-.919,1.5179,1.5179,0,0,0-1.0482-.3474,1.651,1.651,0,0,0-1.0178.2855.891.891,0,0,0-.3789.7452.8432.8432,0,0,0,.3406.6938,3.1551,3.1551,0,0,0,1.0905.4733,5.14,5.14,0,0,1,1.1364.4249,1.6228,1.6228,0,0,1,.5816.5262,1.3164,1.3164,0,0,1,.195.7233,1.2592,1.2592,0,0,1-.526,1.0559,2.24,2.24,0,0,1-1.387.3981,2.7224,2.7224,0,0,1-1.081-.21,1.6523,1.6523,0,0,1-.7462-.5892,1.5219,1.5219,0,0,1-.2543-.8687h.4706a1.1127,1.1127,0,0,0,.44.93,1.8617,1.8617,0,0,0,1.1708.34,1.7352,1.7352,0,0,0,1.0445-.2869A.8974.8974,0,0,0,199.4818,66.8668Z"></path><path d="M204.0292,68.3227a1.7212,1.7212,0,0,1-1.3447-.5821,2.2551,2.2551,0,0,1-.5166-1.5439,2.5811,2.5811,0,0,1,.2324-1.17,1.7448,1.7448,0,0,1,1.6221-1.0166,1.7222,1.7222,0,0,1,1.3467.583,2.2511,2.2511,0,0,1,.5146,1.5429,2.616,2.616,0,0,1-.2324,1.1807,1.7516,1.7516,0,0,1-.6563.7451A1.81,1.81,0,0,1,204.0292,68.3227Zm-.0068-3.9024a1.2193,1.2193,0,0,0-.9912.4766,1.9421,1.9421,0,0,0-.3848,1.251,1.9659,1.9659,0,0,0,.3828,1.2968,1.2928,1.2928,0,0,0,1.9971,0,1.947,1.947,0,0,0,.3828-1.2509,2.2424,2.2424,0,0,0-.1758-.9532,1.4162,1.4162,0,0,0-.49-.6064A1.2554,1.2554,0,0,0,204.0224,64.42Z"></path><path d="M202.1777,66.1052a2.4349,2.4349,0,0,1,.2315-1.075,1.7385,1.7385,0,0,1,1.6127-1.01,1.7027,1.7027,0,0,1,1.3393.58,2.2333,2.2333,0,0,1,.5126,1.5361v.0958a2.4562,2.4562,0,0,1-.2315,1.0808,1.7284,1.7284,0,0,1-.6522.74,1.7892,1.7892,0,0,1-.9606.26,1.7047,1.7047,0,0,1-1.3372-.58,2.2283,2.2283,0,0,1-.5146-1.5363Zm.4592.1265a1.8783,1.8783,0,0,0,.3845,1.2186,1.3011,1.3011,0,0,0,2.0125,0,1.94,1.94,0,0,0,.3847-1.2569v-.0882a2.108,2.108,0,0,0-.176-.8684,1.4136,1.4136,0,0,0-.4937-.61,1.26,1.26,0,0,0-.727-.2163,1.2235,1.2235,0,0,0-.9986.48,1.9434,1.9434,0,0,0-.3864,1.2569Z"></path><path d="M208.4394,68.2465l-.01-5.8867.47-.01.01,5.8867a.0092.0092,0,0,1-.01.01Z"></path><path d="M208.8989,68.2366H208.44V62.36h.4592Z"></path><path d="M213.0527,68.3227a1.2939,1.2939,0,0,1-1.0137-.3877,1.7,1.7,0,0,1-.3545-1.1446V64.0961l.4658-.01.01,2.6465c0,.7783.3183,1.1729.9463,1.1729a1.1665,1.1665,0,0,0,1.249-.8164V64.0961l.4687-.01.01,4.15-.4531.01-.0176-.5342A1.4407,1.4407,0,0,1,213.0527,68.3227Z"></path><path d="M214.3728,67.7124a1.4876,1.4876,0,0,1-1.32.6008,1.2811,1.2811,0,0,1-1.0065-.3847,1.6845,1.6845,0,0,1-.3519-1.1383V64.0964h.4553v2.6363q0,1.1826.9567,1.1824a1.1725,1.1725,0,0,0,1.2587-.8226V64.0964h.4593v4.14h-.4439Z"></path><path d="M218.7333,68.3227a.8266.8266,0,0,1-.6924-.2774,1.3013,1.3013,0,0,1-.2168-.8115V64.4711l-.7519.01-.01-.3848.7715-.01-.01-1.05.4688-.01.01,1.0693.8476-.01.01.3848-.8672.01.01,2.7529a.8613.8613,0,0,0,.123.5068.4755.4755,0,0,0,.4072.1651,2.8278,2.8278,0,0,0,.3692-.0381l.03.38A1.3,1.3,0,0,1,218.7333,68.3227Z"></path><path d="M218.2932,63.0367v1.06h.8572v.3751h-.8572v2.7618a.8653.8653,0,0,0,.1244.5133.4819.4819,0,0,0,.4152.1685,2.8634,2.8634,0,0,0,.3711-.0381l.0192.3716a1.4987,1.4987,0,0,1-.49.0646.8166.8166,0,0,1-.685-.2737,1.2882,1.2882,0,0,1-.2141-.8055V64.4715h-.7616v-.3751h.7616v-1.06Z"></path><path d="M221.72,68.2465l-.01-4.15.47-.01.01,4.15a.0092.0092,0,0,1-.01.01Zm.2334-5.0313a.3046.3046,0,0,1-.3233-.3144.32.32,0,0,1,.0869-.2256.31.31,0,0,1,.2364-.0918.3163.3163,0,0,1,.2392.0918.3131.3131,0,0,1,.0889.2256.3069.3069,0,0,1-.0889.2236A.3191.3191,0,0,1,221.9531,63.2152Z"></path><path d="M221.64,62.901a.307.307,0,0,1,.0842-.2188.3.3,0,0,1,.23-.0894.3006.3006,0,0,1,.3176.3082.2979.2979,0,0,1-.0861.2167.3109.3109,0,0,1-.2315.0874.3045.3045,0,0,1-.23-.0874A.3008.3008,0,0,1,221.64,62.901Zm.54,5.3356H221.72v-4.14h.4592Z"></path><path d="M226.5888,68.3227a1.7212,1.7212,0,0,1-1.3447-.5821,2.2551,2.2551,0,0,1-.5166-1.5439,2.5811,2.5811,0,0,1,.2324-1.17A1.7448,1.7448,0,0,1,226.582,64.01a1.722,1.722,0,0,1,1.3466.583,2.2512,2.2512,0,0,1,.5147,1.5429,2.616,2.616,0,0,1-.2324,1.1807,1.7516,1.7516,0,0,1-.6563.7451A1.8108,1.8108,0,0,1,226.5888,68.3227ZM226.582,64.42a1.2194,1.2194,0,0,0-.9913.4766,1.9426,1.9426,0,0,0-.3847,1.251,1.9714,1.9714,0,0,0,.3828,1.2968,1.2928,1.2928,0,0,0,1.9971,0,1.947,1.947,0,0,0,.3828-1.2509,2.2621,2.2621,0,0,0-.1748-.9532,1.4262,1.4262,0,0,0-.4912-.6064A1.2554,1.2554,0,0,0,226.582,64.42Z"></path><path d="M224.7373,66.1052a2.4349,2.4349,0,0,1,.2315-1.075,1.7388,1.7388,0,0,1,1.6127-1.01,1.7026,1.7026,0,0,1,1.3393.58,2.2333,2.2333,0,0,1,.5126,1.5361v.0958a2.4562,2.4562,0,0,1-.2315,1.0808,1.7284,1.7284,0,0,1-.6522.74,1.7886,1.7886,0,0,1-.96.26,1.7044,1.7044,0,0,1-1.3372-.58,2.2279,2.2279,0,0,1-.5147-1.5363Zm.4593.1265a1.8783,1.8783,0,0,0,.3845,1.2186,1.301,1.301,0,0,0,2.0124,0,1.94,1.94,0,0,0,.3848-1.2569v-.0882a2.108,2.108,0,0,0-.1761-.8684,1.4136,1.4136,0,0,0-.4937-.61,1.2594,1.2594,0,0,0-.727-.2163,1.2236,1.2236,0,0,0-.9986.48,1.9439,1.9439,0,0,0-.3863,1.2569Z"></path><path d="M233.6132,68.2465l-.01-2.73a1.2553,1.2553,0,0,0-.2343-.8193.9146.9146,0,0,0-.7325-.2686,1.1572,1.1572,0,0,0-.746.2637,1.5582,1.5582,0,0,0-.48.7129v2.832l-.4649.01-.01-4.15.4453-.01.0254.7178a1.4619,1.4619,0,0,1,.5673-.5918,1.5289,1.5289,0,0,1,.7735-.2021,1.2571,1.2571,0,0,1,.999.3779,1.7143,1.7143,0,0,1,.3311,1.1318v2.7168a.0093.0093,0,0,1-.01.01Z"></path><path d="M231.3819,64.0964l.0155.7081a1.6437,1.6437,0,0,1,.5816-.5837,1.5117,1.5117,0,0,1,.769-.2008,1.242,1.242,0,0,1,.991.3751,1.6914,1.6914,0,0,1,.3291,1.1248v2.7167h-.4553V65.516a1.2653,1.2653,0,0,0-.2354-.8264.9225.9225,0,0,0-.74-.2717,1.1586,1.1586,0,0,0-.7519.2659,1.56,1.56,0,0,0-.484.7175v2.8353h-.4553v-4.14Z"></path></svg>